<svg width="24" height="24" viewBox="0 0 24 24" fill="none" xmlns="http://www.w3.org/2000/svg">
<path d="M6.17833 3.8335H3.845H3.83333C2.53833 3.8335 1.5 4.87183 1.5 6.16683V20.1668C1.5 21.4502 2.53833 22.4885 3.83333 22.4885H9.66667" stroke="#FAC637" stroke-width="1.5" stroke-linecap="round" stroke-linejoin="round"/>
<path d="M14.345 1.5H7.345C6.70066 1.5 6.17833 2.02233 6.17833 2.66667V5C6.17833 5.64433 6.70066 6.16667 7.345 6.16667H14.345C14.9893 6.16667 15.5117 5.64433 15.5117 5V2.66667C15.5117 2.02233 14.9893 1.5 14.345 1.5Z" stroke="#FAC637" stroke-width="1.5" stroke-linecap="round" stroke-linejoin="round"/>
<path d="M15.5117 3.8331H17.845H17.8333C19.1167 3.82144 20.1667 4.87144 20.1667 6.15477V10.8214" stroke="#FAC637" stroke-width="1.5" stroke-linecap="round" stroke-linejoin="round"/>
<path d="M19.665 15.2198L22.2783 19.8748C22.745 20.7148 22.4417 21.7882 21.6017 22.2548C21.3333 22.3948 21.0417 22.4765 20.7383 22.4765H15.5V22.4753C14.52 22.4753 13.7383 21.682 13.7383 20.7137C13.7267 20.4103 13.8083 20.107 13.96 19.8503L16.5733 15.1837H16.5617C17.0283 14.332 18.1017 14.0287 18.9417 14.507C19.2217 14.6587 19.4433 14.892 19.6067 15.172L19.665 15.2198Z" stroke="#FAC637" stroke-width="1.5" stroke-linecap="round" stroke-linejoin="round"/>
</svg>
