<svg width="88" height="17" viewBox="0 0 88 17" fill="none" xmlns="http://www.w3.org/2000/svg">
<g clip-path="url(#clip0_1741_12927)">
<path d="M0 1.84191C1.80293 1.84191 3.62016 1.82868 5.42309 1.84191C5.89819 1.84216 6.37232 1.88199 6.83967 1.96091C9.2865 2.37083 10.6602 3.91794 10.5886 6.13943C10.5171 8.13612 8.92878 9.70968 6.5535 9.88158C4.37854 10.0403 2.18927 10.0006 0 10.0403V1.84191ZM2.90472 7.76587C3.97789 7.76587 5.02244 7.84521 6.05268 7.73943C7.08293 7.63364 7.6839 6.90637 7.71252 5.96753C7.72683 4.97579 7.1974 4.24852 6.10992 4.08984C5.06537 3.94439 3.99219 3.97083 2.90472 3.93116V7.76587Z" fill="white"/>
<path d="M87.9757 9.07099C87.9757 9.0062 87.9757 8.93876 87.9757 8.87926C87.9757 8.75628 87.9757 8.63199 87.9757 8.50769C87.9724 8.4139 87.9637 8.32033 87.9499 8.22736C87.9499 8.19033 87.9399 8.15463 87.9342 8.11893C87.9327 8.11195 87.9327 8.10475 87.9342 8.09777C87.648 5.74405 85.473 4.01182 82.2965 4.35562C81.6506 4.41809 81.026 4.60504 80.4631 4.90441C79.9003 5.20377 79.4115 5.6089 79.0286 6.09362C78.6457 6.57834 78.377 7.1319 78.2399 7.71853C78.1028 8.30518 78.1004 8.91187 78.2327 9.49943C81.2948 9.49943 84.3856 9.49942 87.4763 9.4862C87.6409 9.47298 87.8197 9.33942 87.9857 9.25876L87.9757 9.07099ZM80.8742 7.93777C81.0745 6.82703 81.933 6.21876 83.1493 6.21876C84.0364 6.21876 85.267 6.90637 85.2527 7.93777H80.8742Z" fill="white"/>
<path d="M41.3528 16.3874C40.7805 16.2022 40.1938 16.0303 39.6215 15.8452C39.4562 15.7612 39.3024 15.659 39.1636 15.5411C39.4927 14.946 39.8075 14.3774 40.1366 13.7692C40.294 13.8485 40.4085 13.9146 40.5372 13.9675C41.7821 14.589 42.6836 14.3246 43.2416 13.1212C44.4865 10.4634 45.7314 7.80555 46.919 5.12125C47.1766 4.55265 47.4771 4.34108 48.121 4.4072C48.6647 4.46009 49.2085 4.42042 49.8667 4.42042C49.7665 4.69811 49.695 4.89646 49.6091 5.08158C48.3785 7.76588 47.0907 10.437 45.9174 13.1477C45.2306 14.7345 44.3148 16.0171 42.3688 16.3874H41.3528Z" fill="white"/>
<path d="M0 10.5692H2.81886V13.0816H0V10.5692Z" fill="white"/>
<path d="M42.9268 12.4865C41.7106 9.76257 40.5802 7.22373 39.3925 4.56588C38.305 5.96753 37.2748 7.28984 36.2302 8.65183C37.4179 10.1064 38.5769 11.5345 39.8361 13.0684C38.7629 13.0684 37.8472 13.0816 36.9314 13.0551C36.774 13.0551 36.5737 12.87 36.4592 12.7246C35.8725 11.9973 35.3145 11.27 34.6849 10.4634C34.0696 11.2303 33.5115 11.9708 32.8963 12.6584C32.6919 12.8762 32.4053 13.0134 32.095 13.0419C31.3223 13.0948 30.5353 13.0551 29.6052 13.0551C29.9486 12.632 30.2062 12.2882 30.4924 11.9444C31.265 10.9923 32.0377 10.0403 32.8533 9.11464C33.1395 8.78406 33.1109 8.58571 32.839 8.26836C31.8088 7.0386 30.8072 5.76918 29.6911 4.4072C30.7642 4.4072 31.6943 4.39398 32.6387 4.42042C32.7961 4.42042 32.9678 4.64522 33.0966 4.79067C33.6403 5.45183 34.1698 6.13943 34.7564 6.87993C35.3431 6.15265 35.8725 5.45183 36.4735 4.80389C36.6595 4.60555 37.0029 4.4072 37.2748 4.4072C38.6771 4.36753 40.0937 4.4072 41.4959 4.38075C41.8823 4.38075 42.0826 4.48654 42.24 4.83034C42.8696 6.28488 43.5278 7.71298 44.1717 9.16753C44.2671 9.35785 44.2875 9.5731 44.2289 9.77579C43.8426 10.6617 43.4133 11.4948 42.9268 12.4865Z" fill="white"/>
<path d="M23.5239 13.2138C22.0644 13.1874 20.3616 12.4998 19.4745 10.7014C18.6302 9.00885 18.8163 7.34273 20.1327 5.87496C21.5493 4.28819 24.454 3.82538 26.6433 4.79067C28.6608 5.68984 29.6338 7.58075 29.2046 9.74934C28.7753 11.8254 26.7434 13.2138 23.5239 13.2138ZM26.5002 8.75761C26.5002 7.34273 25.5272 6.36422 24.1535 6.37744C22.7798 6.39067 21.7782 7.40885 21.7782 8.75761C21.7782 10.1593 22.7512 11.1113 24.1535 11.1113C25.5558 11.1113 26.5002 10.1989 26.5002 8.75761Z" fill="white"/>
<path d="M69.3125 5.3196C70.5717 4.36753 71.9167 4.14274 73.362 4.39398C74.9932 4.68489 76.095 5.80885 76.1951 7.52786C76.3096 9.33943 76.2237 11.1774 76.2237 13.0419H73.5193V9.33943C73.5288 8.92001 73.5098 8.50044 73.4621 8.08323C73.319 7.0915 72.761 6.5758 71.788 6.49646C70.772 6.41712 69.842 6.94604 69.5701 7.81877C69.4598 8.20259 69.4068 8.59854 69.4127 8.99563C69.3984 10.3312 69.3984 11.6799 69.3984 13.0551H66.694V4.48654H69.241C69.2696 4.72456 69.2839 4.96257 69.3125 5.3196Z" fill="white"/>
<path d="M54.0163 1.85513H51.2117C51.2117 5.62373 51.2117 9.33943 51.226 13.0419H60.0689V10.9262H54.0163V1.85513Z" fill="white"/>
<path d="M18.158 4.36752V6.61545H17.7002C16.0117 6.61545 15.1532 7.40884 15.1532 8.98239C15.1389 10.2783 15.1389 11.5874 15.1389 12.8832C15.1251 12.9419 15.106 12.9995 15.0816 13.0551H12.4345V4.48653H14.9528C14.9815 4.79066 15.0101 5.05512 15.0387 5.34603C16.5554 4.40719 16.9275 4.28818 18.158 4.36752Z" fill="white"/>
<path d="M64.1327 13.0816H61.8862C61.7431 13.0816 61.6143 13.0551 61.4426 13.0419V4.46008H64.1184C64.1327 7.3295 64.1327 10.1857 64.1327 13.0816Z" fill="white"/>
<path d="M62.8077 3.27529C63.7552 3.27529 64.5233 2.62881 64.5233 1.83133C64.5233 1.03385 63.7552 0.38736 62.8077 0.38736C61.8601 0.38736 61.092 1.03385 61.092 1.83133C61.092 2.62881 61.8601 3.27529 62.8077 3.27529Z" fill="white"/>
<path d="M87.3132 11.8254C85.682 13.346 83.7216 13.4518 81.6754 13.0155C79.8582 12.6188 78.5418 11.3758 78.3128 9.98736C79.1428 9.98736 79.9584 9.97414 80.7883 10.0006C80.8677 10.007 80.9445 10.0292 81.0138 10.0657C81.0829 10.1023 81.1427 10.1522 81.1889 10.2122C81.9902 11.4155 84.4371 11.4816 85.5532 10.5692C85.6247 10.5163 85.7106 10.4634 85.8537 10.3708C86.0969 10.5956 86.3402 10.8336 86.5691 11.0717C86.798 11.3097 87.0413 11.5477 87.3132 11.8254Z" fill="white"/>
</g>
<defs>
<clipPath id="clip0_1741_12927">
<rect width="88" height="16" fill="white" transform="translate(0 0.38736)"/>
</clipPath>
</defs>
</svg>
