<svg width="16" height="18" viewBox="0 0 16 18" fill="none" xmlns="http://www.w3.org/2000/svg">
<path d="M8.94589 1.5V1.5C9.29749 1.50005 9.61122 1.72077 9.73006 2.05167L10.1534 3.23083V3.23083C10.2206 3.41626 10.351 3.57206 10.5217 3.67083L11.7776 4.39583V4.39583C11.9481 4.49423 12.148 4.52906 12.3417 4.49417L13.5751 4.27167V4.27167C13.9214 4.20869 14.2699 4.37012 14.4459 4.675L15.1126 5.825V5.825C15.289 6.12905 15.2556 6.51111 15.0292 6.78L14.2201 7.73667V7.73667C14.0926 7.8871 14.0226 8.07784 14.0226 8.275V9.725V9.72496C14.0226 9.92211 14.0926 10.1129 14.22 10.2633L15.0292 11.22V11.22C15.2556 11.4889 15.289 11.8709 15.1125 12.175L14.4459 13.325V13.325C14.27 13.6295 13.9219 13.7909 13.5759 13.7283L12.3425 13.5058V13.5058C12.1488 13.4709 11.9489 13.5057 11.7784 13.6041L10.5225 14.3291V14.3291C10.3518 14.4279 10.2214 14.5837 10.1542 14.7691L9.73086 15.9483V15.9483C9.61194 16.2795 9.29779 16.5003 8.94589 16.5H7.61256V16.5C7.26097 16.4999 6.94723 16.2792 6.82839 15.9483L6.40506 14.7692V14.7692C6.33788 14.584 6.20782 14.4283 6.03756 14.3292L4.78089 13.6042V13.6042C4.61036 13.5058 4.41049 13.4709 4.21673 13.5058L2.98339 13.7283V13.7283C2.63706 13.7913 2.28852 13.6299 2.11256 13.325L1.44589 12.175V12.175C1.26946 11.871 1.3028 11.4889 1.52923 11.22L2.33839 10.2633V10.2633C2.46583 10.1129 2.53581 9.92216 2.53589 9.725V8.275V8.27505C2.53582 8.07789 2.46586 7.88714 2.33842 7.7367L1.53756 6.78V6.78C1.31114 6.51111 1.2778 6.12905 1.45422 5.825L2.12089 4.675V4.675C2.29674 4.37045 2.64484 4.20907 2.99089 4.27167L4.22422 4.49417V4.49417C4.41799 4.52906 4.61786 4.49423 4.78839 4.39583L6.04506 3.67083H6.04506C6.21532 3.57175 6.34538 3.41602 6.41256 3.23083L6.83589 2.05167V2.05167C6.95379 1.72334 7.26372 1.5032 7.61256 1.5L8.94589 1.5Z" stroke="white" stroke-width="1.5" stroke-linecap="round" stroke-linejoin="round"/>
<path d="M8.27923 11.2916C9.54488 11.2916 10.5709 10.2656 10.5709 8.99992C10.5709 7.73427 9.54488 6.70825 8.27923 6.70825C7.01358 6.70825 5.98756 7.73427 5.98756 8.99992C5.98756 10.2656 7.01358 11.2916 8.27923 11.2916Z" stroke="white" stroke-width="1.5" stroke-linecap="round" stroke-linejoin="round"/>
</svg>
