<svg width="18" height="14" viewBox="0 0 18 14" fill="none" xmlns="http://www.w3.org/2000/svg">
<path d="M1.59813 7.38916C1.46729 7.14666 1.46729 6.85249 1.59813 6.60999C3.17479 3.69416 6.08729 1.16666 8.99979 1.16666C11.9123 1.16666 14.8248 3.69416 16.4015 6.61082C16.5323 6.85332 16.5323 7.14749 16.4015 7.38999C14.8248 10.3058 11.9123 12.8333 8.99979 12.8333C6.08729 12.8333 3.17479 10.3058 1.59813 7.38916V7.38916Z" stroke="#CBCBCB" stroke-width="1.5" stroke-linecap="round" stroke-linejoin="round"/>
<path d="M10.7675 5.23223C11.7438 6.20854 11.7438 7.79146 10.7675 8.76776C9.79121 9.74407 8.2083 9.74407 7.23199 8.76776C6.25568 7.79146 6.25568 6.20854 7.23199 5.23223C8.2083 4.25592 9.79121 4.25592 10.7675 5.23223Z" stroke="#CBCBCB" stroke-width="1.4286" stroke-linecap="round" stroke-linejoin="round"/>
</svg>
