<svg width="20" height="16" viewBox="0 0 20 16" fill="none" xmlns="http://www.w3.org/2000/svg">
<path d="M9.99973 15C9.15773 15 8.31473 14.822 7.49573 14.505" stroke="#0F1218" stroke-width="1.5" stroke-linecap="round" stroke-linejoin="round"/>
<path d="M18.8818 8.46802C16.9898 11.967 13.4948 15 9.99976 15" stroke="#0F1218" stroke-width="1.5" stroke-linecap="round" stroke-linejoin="round"/>
<path d="M17.0787 4.92102C17.7697 5.73002 18.3837 6.61202 18.8817 7.53302C19.0387 7.82402 19.0387 8.17702 18.8817 8.46802" stroke="#0F1218" stroke-width="1.5" stroke-linecap="round" stroke-linejoin="round"/>
<path d="M2.99976 15L16.9998 1" stroke="#0F1218" stroke-width="1.5" stroke-linecap="round" stroke-linejoin="round"/>
<path d="M7.77272 10.227C6.54272 8.99699 6.54272 7.00199 7.77272 5.77199C9.00272 4.54199 10.9977 4.54199 12.2277 5.77199" stroke="#0F1218" stroke-width="1.5" stroke-linecap="round" stroke-linejoin="round"/>
<path d="M15.0438 2.956C13.4968 1.759 11.7478 1 9.99975 1C6.50475 1 3.00975 4.033 1.11775 7.533C0.96075 7.824 0.96075 8.177 1.11775 8.468C2.06375 10.217 3.40975 11.849 4.95575 13.045" stroke="#0F1218" stroke-width="1.5" stroke-linecap="round" stroke-linejoin="round"/>
</svg>
