<svg width="18" height="18" viewBox="0 0 18 18" fill="none" xmlns="http://www.w3.org/2000/svg">
<path d="M16.5 8.16667V14.8333C16.5 15.7542 15.7542 16.5 14.8333 16.5H3.16667C2.24583 16.5 1.5 15.7542 1.5 14.8333V3.16667C1.5 2.24583 2.24583 1.5 3.16667 1.5H9" stroke="#CBCBCB" stroke-width="1.5" stroke-linecap="round" stroke-linejoin="round"/>
<path d="M6.5 11.4998L9.125 11.1756C9.30917 11.1531 9.48083 11.069 9.6125 10.9381L15.9717 4.57896C16.6758 3.87479 16.6758 2.73313 15.9717 2.02813C15.2675 1.32396 14.1258 1.32396 13.4208 2.02813L7.12083 8.32813C6.99333 8.45563 6.91083 8.62063 6.885 8.79979L6.5 11.4998V11.4998Z" stroke="#CBCBCB" stroke-width="1.5" stroke-linecap="round" stroke-linejoin="round"/>
</svg>
