<svg width="24" height="23" viewBox="0 0 24 23" fill="none" xmlns="http://www.w3.org/2000/svg">
<path d="M12 14.0472C13.1276 14.0472 14.0417 13.1331 14.0417 12.0055C14.0417 10.878 13.1276 9.96387 12 9.96387C10.8725 9.96387 9.95837 10.878 9.95837 12.0055C9.95837 13.1331 10.8725 14.0472 12 14.0472Z" stroke="#FAC637" stroke-width="1.5" stroke-linecap="round" stroke-linejoin="round"/>
<path d="M12.0001 5.00537V6.17204" stroke="#FAC637" stroke-width="1.5" stroke-linecap="round" stroke-linejoin="round"/>
<path d="M7.05338 7.05859L7.87004 7.88693" stroke="#FAC637" stroke-width="1.5" stroke-linecap="round" stroke-linejoin="round"/>
<path d="M13.4467 10.5586L16.9467 7.05859" stroke="#FAC637" stroke-width="1.5" stroke-linecap="round" stroke-linejoin="round"/>
<path d="M7.91672 17.2554H16.0834" stroke="#FAC637" stroke-width="1.5" stroke-linecap="round" stroke-linejoin="round"/>
<path d="M19 12.0054H17.8334" stroke="#FAC637" stroke-width="1.5" stroke-linecap="round" stroke-linejoin="round"/>
<path d="M6.16673 12.0054H5.00006" stroke="#FAC637" stroke-width="1.5" stroke-linecap="round" stroke-linejoin="round"/>
<path d="M11.6722 1.50547V1.50547C6.03641 1.74122 1.56888 6.34299 1.50005 11.9833V11.9833C1.48967 15.367 3.1144 18.5474 5.8622 20.5221H5.8622C6.64005 21.0655 7.56877 21.3511 8.51754 21.3388H15.4919V21.3388C16.4191 21.3527 17.3274 21.0765 18.09 20.549V20.549C22.8147 17.1922 23.9236 10.6408 20.5668 5.91616C18.5289 3.04775 15.189 1.39159 11.6722 1.50552V1.50547Z" stroke="#FAC637" stroke-width="1.5" stroke-linecap="round" stroke-linejoin="round"/>
</svg>
