<svg width="15" height="16" viewBox="0 0 15 16" fill="none" xmlns="http://www.w3.org/2000/svg">
<path d="M14.25 7.25V13.25C14.25 14.0788 13.5788 14.75 12.75 14.75H2.25C1.42125 14.75 0.75 14.0788 0.75 13.25V2.75C0.75 1.92125 1.42125 1.25 2.25 1.25H7.5" stroke="white" stroke-width="1.5" stroke-linecap="round" stroke-linejoin="round"/>
<path d="M5.25 10.2498L7.6125 9.95806C7.77825 9.93781 7.93275 9.86206 8.05125 9.74431L13.7745 4.02106C14.4082 3.38731 14.4082 2.35981 13.7745 1.72531C13.1407 1.09156 12.1133 1.09156 11.4788 1.72531L5.80875 7.39531C5.694 7.51006 5.61975 7.65856 5.5965 7.81981L5.25 10.2498V10.2498Z" stroke="white" stroke-width="1.5" stroke-linecap="round" stroke-linejoin="round"/>
</svg>
