<svg width="18" height="14" viewBox="0 0 18 14" fill="none" xmlns="http://www.w3.org/2000/svg">
<path d="M8.99975 12.8333C8.29809 12.8333 7.59559 12.685 6.91309 12.4208" stroke="#CBCBCB" stroke-width="1.5" stroke-linecap="round" stroke-linejoin="round"/>
<path d="M16.4014 7.38998C14.8248 10.3058 11.9123 12.8333 8.99976 12.8333" stroke="#CBCBCB" stroke-width="1.5" stroke-linecap="round" stroke-linejoin="round"/>
<path d="M14.8989 4.43414C15.4748 5.10831 15.9864 5.84331 16.4014 6.61081C16.5323 6.85331 16.5323 7.14748 16.4014 7.38998" stroke="#CBCBCB" stroke-width="1.5" stroke-linecap="round" stroke-linejoin="round"/>
<path d="M3.1665 12.8333L14.8332 1.16666" stroke="#CBCBCB" stroke-width="1.5" stroke-linecap="round" stroke-linejoin="round"/>
<path d="M7.14399 8.85582C6.11899 7.83082 6.11899 6.16832 7.14399 5.14332C8.16899 4.11832 9.83149 4.11832 10.8565 5.14332" stroke="#CBCBCB" stroke-width="1.5" stroke-linecap="round" stroke-linejoin="round"/>
<path d="M13.2031 2.79666C11.914 1.79916 10.4565 1.16666 8.99979 1.16666C6.08729 1.16666 3.17479 3.69416 1.59813 6.61082C1.46729 6.85332 1.46729 7.14749 1.59813 7.38999C2.38646 8.84749 3.50812 10.2075 4.79646 11.2042" stroke="#CBCBCB" stroke-width="1.5" stroke-linecap="round" stroke-linejoin="round"/>
</svg>
