<svg width="88" height="16" viewBox="0 0 88 16" fill="none" xmlns="http://www.w3.org/2000/svg">
<g opacity="0.1" clip-path="url(#clip0_1741_12791)">
<path d="M0.139999 1.45455C1.93719 1.45455 3.74864 1.44132 5.54583 1.45455C6.01942 1.4548 6.49204 1.49463 6.95791 1.57355C9.39696 1.98347 10.7662 3.53058 10.6949 5.75207C10.6236 7.74876 9.04037 9.32232 6.67264 9.49422C4.5046 9.65289 2.3223 9.61322 0.139999 9.65289V1.45455ZM3.03547 7.37851C4.10523 7.37851 5.14646 7.45785 6.17342 7.35207C7.20039 7.24628 7.79945 6.51901 7.82798 5.58017C7.84224 4.58843 7.3145 3.86116 6.23048 3.70248C5.18925 3.55703 4.11949 3.58347 3.03547 3.5438V7.37851Z" fill="white"/>
<path d="M87.8358 8.68365C87.8358 8.61886 87.8358 8.55142 87.8358 8.49192C87.8358 8.36894 87.8358 8.24464 87.8358 8.12034C87.8325 8.02655 87.8238 7.93299 87.8101 7.84001C87.8101 7.80299 87.8001 7.76729 87.7944 7.73158C87.793 7.7246 87.793 7.71741 87.7944 7.71043C87.5091 5.35671 85.3411 3.62448 82.1746 3.96828C81.5308 4.03074 80.9082 4.21769 80.347 4.51707C79.7861 4.81642 79.2988 5.22155 78.9171 5.70628C78.5354 6.191 78.2676 6.74456 78.1309 7.33119C77.9943 7.91783 77.9919 8.52452 78.1238 9.11208C81.1762 9.11208 84.2571 9.11208 87.338 9.09886C87.502 9.08563 87.6803 8.95208 87.8457 8.87142L87.8358 8.68365ZM80.7568 7.55043C80.9565 6.43968 81.8123 5.83142 83.0247 5.83142C83.909 5.83142 85.1357 6.51902 85.1214 7.55043H80.7568Z" fill="white"/>
<path d="M41.3613 16C40.7907 15.8149 40.2059 15.643 39.6354 15.4578C39.4707 15.3739 39.3173 15.2717 39.179 15.1537C39.507 14.5587 39.8208 13.9901 40.1489 13.3818C40.3058 13.4611 40.4199 13.5273 40.5483 13.5802C41.7892 14.2016 42.6878 13.9372 43.244 12.7339C44.485 10.076 45.7259 7.41817 46.9097 4.73387C47.1665 4.16528 47.466 3.95371 48.1079 4.01982C48.6499 4.07272 49.1919 4.03305 49.848 4.03305C49.7482 4.31073 49.6768 4.50908 49.5913 4.6942C48.3646 7.3785 47.0809 10.0496 45.9113 12.7603C45.2267 14.3471 44.3138 15.6297 42.374 16H41.3613Z" fill="white"/>
<path d="M0.139999 10.1818H2.94989V12.6942H0.139999V10.1818Z" fill="white"/>
<path d="M42.9302 12.0992C41.7179 9.3752 40.591 6.83635 39.4072 4.1785C38.3232 5.58015 37.2962 6.90247 36.255 8.26445C37.4388 9.719 38.5942 11.1471 39.8493 12.681C38.7796 12.681 37.8667 12.6942 36.9539 12.6678C36.797 12.6678 36.5973 12.4826 36.4832 12.3372C35.8984 11.6099 35.3421 10.8826 34.7145 10.076C34.1012 10.843 33.5449 11.5835 32.9316 12.2711C32.7279 12.4888 32.4422 12.626 32.1328 12.6545C31.3626 12.7074 30.5781 12.6678 29.651 12.6678C29.9933 12.2446 30.2501 11.9008 30.5353 11.557C31.3056 10.6049 32.0758 9.65288 32.8888 8.72726C33.1741 8.39668 33.1455 8.19834 32.8745 7.88098C31.8476 6.65123 30.8491 5.38181 29.7366 4.01982C30.8063 4.01982 31.7335 4.0066 32.6748 4.03305C32.8317 4.03305 33.0029 4.25784 33.1313 4.40329C33.6733 5.06445 34.201 5.75206 34.7858 6.49255C35.3706 5.76528 35.8984 5.06445 36.4974 4.41652C36.6829 4.21817 37.0252 4.01982 37.2962 4.01982C38.694 3.98015 40.1061 4.01982 41.5039 3.99338C41.889 3.99338 42.0887 4.09916 42.2456 4.44296C42.8732 5.89751 43.5293 7.32561 44.1712 8.78015C44.2663 8.97048 44.2866 9.18572 44.2282 9.38842C43.8431 10.2744 43.4152 11.1074 42.9302 12.0992Z" fill="white"/>
<path d="M23.5891 12.8264C22.1342 12.8 20.4368 12.1124 19.5525 10.314C18.711 8.62147 18.8964 6.95536 20.2086 5.48759C21.6207 3.90081 24.5162 3.438 26.6985 4.40329C28.7096 5.30246 29.6795 7.19337 29.2516 9.36197C28.8237 11.438 26.7983 12.8264 23.5891 12.8264ZM26.5558 8.37023C26.5558 6.95536 25.5859 5.97685 24.2166 5.99007C22.8474 6.00329 21.8489 7.02147 21.8489 8.37023C21.8489 9.77189 22.8188 10.724 24.2166 10.724C25.6145 10.724 26.5558 9.81156 26.5558 8.37023Z" fill="white"/>
<path d="M69.232 4.93222C70.4872 3.98016 71.8279 3.75536 73.2685 4.0066C74.8946 4.29751 75.9928 5.42148 76.0927 7.14049C76.2068 8.95206 76.1212 10.7901 76.1212 12.6545H73.4254V8.95206C73.4348 8.53263 73.4159 8.11306 73.3684 7.69586C73.2257 6.70412 72.6695 6.18842 71.6996 6.10908C70.6869 6.02974 69.7597 6.55867 69.4887 7.4314C69.3788 7.81521 69.326 8.21117 69.3318 8.60826C69.3176 9.94379 69.3176 11.2926 69.3176 12.6678H66.6218V4.09917H69.1607C69.1892 4.33718 69.2035 4.5752 69.232 4.93222Z" fill="white"/>
<path d="M53.9844 1.46777H51.1888C51.1888 5.23637 51.1888 8.95207 51.203 12.6546H60.0178V10.5388H53.9844V1.46777Z" fill="white"/>
<path d="M18.2403 3.98017V6.22811H17.7838C16.1008 6.22811 15.245 7.0215 15.245 8.59505C15.2307 9.89092 15.2307 11.2 15.2307 12.4959C15.217 12.5546 15.1979 12.6121 15.1736 12.6678H12.5349V4.09918H15.0453C15.0738 4.40331 15.1023 4.66778 15.1308 4.95869C16.6428 4.01984 17.0136 3.90083 18.2403 3.98017Z" fill="white"/>
<path d="M64.0686 12.6942H61.8293C61.6866 12.6942 61.5583 12.6678 61.3871 12.6545V4.07272H64.0544C64.0686 6.94215 64.0686 9.79834 64.0686 12.6942Z" fill="white"/>
<path d="M62.7478 2.88793C63.6924 2.88793 64.458 2.24145 64.458 1.44397C64.458 0.646486 63.6924 0 62.7478 0C61.8033 0 61.0377 0.646486 61.0377 1.44397C61.0377 2.24145 61.8033 2.88793 62.7478 2.88793Z" fill="white"/>
<path d="M87.1754 11.438C85.5493 12.9587 83.5952 13.0644 81.5556 12.6281C79.7441 12.2314 78.4319 10.9884 78.2037 9.59999C79.0309 9.59999 79.844 9.58676 80.6712 9.61321C80.7504 9.61961 80.827 9.64184 80.896 9.67836C80.9649 9.71488 81.0245 9.76484 81.0706 9.82478C81.8694 11.0281 84.3084 11.0942 85.421 10.1818C85.4923 10.1289 85.5779 10.076 85.7205 9.98346C85.963 10.2083 86.2054 10.4463 86.4337 10.6843C86.6619 10.9223 86.9044 11.1603 87.1754 11.438Z" fill="white"/>
</g>
<defs>
<clipPath id="clip0_1741_12791">
<rect width="87.72" height="16" fill="white" transform="translate(0.139999)"/>
</clipPath>
</defs>
</svg>
