<svg width="21" height="20" viewBox="0 0 21 20" fill="none" xmlns="http://www.w3.org/2000/svg">
<path d="M6.99998 8.33333H4.49998C3.57915 8.33333 2.83331 7.5875 2.83331 6.66667V4.16667C2.83331 3.24583 3.57915 2.5 4.49998 2.5H6.99998C7.92081 2.5 8.66665 3.24583 8.66665 4.16667V6.66667C8.66665 7.5875 7.92081 8.33333 6.99998 8.33333Z" fill="#FAC637" stroke="#FAC637" stroke-width="1.5" stroke-linecap="round" stroke-linejoin="round"/>
<path d="M16.1666 8.33333H13.6666C12.7458 8.33333 12 7.5875 12 6.66667V4.16667C12 3.24583 12.7458 2.5 13.6666 2.5H16.1666C17.0875 2.5 17.8333 3.24583 17.8333 4.16667V6.66667C17.8333 7.5875 17.0875 8.33333 16.1666 8.33333Z" fill="#FAC637" stroke="#FAC637" stroke-width="1.5" stroke-linecap="round" stroke-linejoin="round"/>
<path d="M6.99998 17.5001H4.49998C3.57915 17.5001 2.83331 16.7542 2.83331 15.8334V13.3334C2.83331 12.4126 3.57915 11.6667 4.49998 11.6667H6.99998C7.92081 11.6667 8.66665 12.4126 8.66665 13.3334V15.8334C8.66665 16.7542 7.92081 17.5001 6.99998 17.5001Z" fill="#FAC637" stroke="#FAC637" stroke-width="1.5" stroke-linecap="round" stroke-linejoin="round"/>
<path d="M17 12.9583H12.8333" stroke="#FAC637" stroke-width="1.5" stroke-linecap="round" stroke-linejoin="round"/>
<path d="M12.8333 16.2083H17" stroke="#FAC637" stroke-width="1.5" stroke-linecap="round" stroke-linejoin="round"/>
</svg>
