<svg width="21" height="20" viewBox="0 0 21 20" fill="none" xmlns="http://www.w3.org/2000/svg">
<path d="M15.6666 2.5H4.83331" stroke="#FAC637" stroke-width="1.5" stroke-linecap="round" stroke-linejoin="round"/>
<path d="M18.1667 13.9583V15.4167C18.1667 15.9692 17.9472 16.4991 17.5565 16.8898C17.1658 17.2805 16.6359 17.5 16.0833 17.5H5.24999C4.69746 17.5 4.16755 17.2805 3.77685 16.8898C3.38615 16.4991 3.16666 15.9692 3.16666 15.4167V7.08333C3.16666 6.5308 3.38615 6.0009 3.77685 5.61019C4.16755 5.21949 4.69746 5 5.24999 5H16.0833C16.6359 5 17.1658 5.21949 17.5565 5.61019C17.9472 6.0009 18.1667 6.5308 18.1667 7.08333V8.54167H16.9167C16.1984 8.54167 15.5095 8.82701 15.0016 9.33492C14.4937 9.84283 14.2083 10.5317 14.2083 11.25C14.2083 11.9683 14.4937 12.6572 15.0016 13.1651C15.5095 13.673 16.1984 13.9583 16.9167 13.9583H18.1667Z" fill="#FAC637"/>
<path d="M15.8855 10.2188C16.1589 9.94531 16.5299 9.79167 16.9167 9.79167H18.1667C18.2219 9.79167 18.2749 9.81362 18.314 9.85269C18.353 9.89176 18.375 9.94475 18.375 10V12.5C18.375 12.5553 18.353 12.6082 18.314 12.6473C18.2749 12.6864 18.2219 12.7083 18.1667 12.7083H16.9167C16.5299 12.7083 16.1589 12.5547 15.8855 12.2812C15.612 12.0077 15.4583 11.6368 15.4583 11.25C15.4583 10.8632 15.612 10.4923 15.8855 10.2188Z" fill="#FAC637"/>
</svg>
