<svg width="20" height="20" viewBox="0 0 20 20" fill="none" xmlns="http://www.w3.org/2000/svg">
<path fill-rule="evenodd" clip-rule="evenodd" d="M11.7301 3.05167C11.6112 2.72077 11.2975 2.50005 10.9459 2.5H9.61256C9.26372 2.5032 8.95379 2.72334 8.83589 3.05167L8.41256 4.23083C8.34538 4.41602 8.21532 4.57175 8.04506 4.67083L6.78839 5.39583C6.61786 5.49423 6.41799 5.52906 6.22422 5.49417L4.99089 5.27167C4.64484 5.20907 4.29674 5.37045 4.12089 5.675L3.45422 6.825C3.2778 7.12905 3.31114 7.51111 3.53756 7.78L4.33842 8.7367C4.46586 8.88714 4.53582 9.07789 4.53589 9.27505V10.725C4.53581 10.9222 4.46583 11.1129 4.33839 11.2633L3.52923 12.22C3.3028 12.4889 3.26946 12.871 3.44589 13.175L4.11256 14.325C4.28852 14.6299 4.63706 14.7913 4.98339 14.7283L6.21673 14.5058C6.41049 14.4709 6.61036 14.5058 6.78089 14.6042L8.03756 15.3292C8.20782 15.4283 8.33788 15.584 8.40506 15.7692L8.82839 16.9483C8.94723 17.2792 9.26097 17.4999 9.61256 17.5H10.9459C11.2978 17.5003 11.6119 17.2795 11.7309 16.9483L12.1542 15.7691C12.2214 15.5837 12.3518 15.4279 12.5225 15.3291L13.7784 14.6041C13.9489 14.5057 14.1488 14.4709 14.3425 14.5058L15.5759 14.7283C15.9219 14.7909 16.27 14.6295 16.4459 14.325L17.1125 13.175C17.289 12.8709 17.2556 12.4889 17.0292 12.22L16.22 11.2633C16.0926 11.1129 16.0226 10.9221 16.0226 10.725V9.275C16.0226 9.07784 16.0926 8.8871 16.2201 8.73667L17.0292 7.78C17.2556 7.51111 17.289 7.12905 17.1126 6.825L16.4459 5.675C16.2699 5.37012 15.9214 5.20869 15.5751 5.27167L14.3417 5.49417C14.148 5.52906 13.9481 5.49423 13.7776 5.39583L12.5217 4.67083C12.351 4.57206 12.2206 4.41626 12.1534 4.23083L11.7301 3.05167ZM6.87499 10.2083C6.87499 8.36738 8.36738 6.875 10.2083 6.875C12.0493 6.875 13.5417 8.36738 13.5417 10.2083C13.5417 12.0493 12.0493 13.5417 10.2083 13.5417C8.36738 13.5417 6.87499 12.0493 6.87499 10.2083Z" fill="#FAC637"/>
<path d="M10.9459 2.5L10.946 1.75H10.9459V2.5ZM11.7301 3.05167L12.4359 2.79825L12.4359 2.79817L11.7301 3.05167ZM9.61256 2.5V1.74997L9.60569 1.75003L9.61256 2.5ZM8.83589 3.05167L8.13002 2.7982L8.13 2.79825L8.83589 3.05167ZM8.41256 4.23083L9.11761 4.48658L9.11845 4.48426L8.41256 4.23083ZM8.04506 4.67083L8.41985 5.32048L8.4223 5.31905L8.04506 4.67083ZM6.78839 5.39583L6.4136 4.7462L6.41358 4.74621L6.78839 5.39583ZM6.22422 5.49417L6.09107 6.23225L6.09129 6.23229L6.22422 5.49417ZM4.99089 5.27167L4.8574 6.00969L4.85774 6.00975L4.99089 5.27167ZM4.12089 5.675L4.76975 6.05115L4.7704 6.05002L4.12089 5.675ZM3.45422 6.825L4.10292 7.20142L4.10308 7.20115L3.45422 6.825ZM3.53756 7.78L4.11266 7.29858L4.11126 7.29692L3.53756 7.78ZM4.33842 8.7367L3.76331 9.21813L3.76615 9.22147L4.33842 8.7367ZM4.53589 9.27505H5.28589V9.27479L4.53589 9.27505ZM4.53589 10.725L5.28589 10.7253V10.725H4.53589ZM4.33839 11.2633L3.76614 10.7785L3.76576 10.779L4.33839 11.2633ZM3.52923 12.22L2.95659 11.7357L2.95553 11.7369L3.52923 12.22ZM3.44589 13.175L4.09475 12.7989L4.09459 12.7986L3.44589 13.175ZM4.11256 14.325L4.76214 13.9501L4.76141 13.9489L4.11256 14.325ZM4.98339 14.7283L4.85024 13.9902L4.84922 13.9904L4.98339 14.7283ZM6.21673 14.5058L6.08379 13.7677L6.08357 13.7677L6.21673 14.5058ZM6.78089 14.6042L6.40608 15.2538L6.4061 15.2538L6.78089 14.6042ZM8.03756 15.3292L8.41481 14.6809L8.41235 14.6795L8.03756 15.3292ZM8.40506 15.7692L9.11095 15.5157L9.11011 15.5134L8.40506 15.7692ZM8.82839 16.9483L8.1225 17.2018L8.12253 17.2018L8.82839 16.9483ZM9.61256 17.5L9.61245 18.25H9.61256V17.5ZM10.9459 17.5L10.9465 16.75H10.9459V17.5ZM11.7309 16.9483L12.4367 17.2018L12.4368 17.2017L11.7309 16.9483ZM12.1542 15.7691L11.4491 15.5136L11.4483 15.5157L12.1542 15.7691ZM12.5225 15.3291L12.1476 14.6796L12.1469 14.68L12.5225 15.3291ZM13.7784 14.6041L13.4035 13.9545L13.4034 13.9546L13.7784 14.6041ZM14.3425 14.5058L14.4757 13.7677L14.4755 13.7677L14.3425 14.5058ZM15.5759 14.7283L15.7094 13.9903L15.709 13.9902L15.5759 14.7283ZM16.4459 14.325L15.797 13.9488L15.7964 13.9499L16.4459 14.325ZM17.1125 13.175L16.4638 12.7985L16.4637 12.7988L17.1125 13.175ZM17.0292 12.22L17.6029 11.7369L17.6018 11.7356L17.0292 12.22ZM16.22 11.2633L16.7927 10.779L16.7923 10.7785L16.22 11.2633ZM16.0226 10.725H15.2726V10.7252L16.0226 10.725ZM16.0226 9.275L15.2726 9.2747V9.275H16.0226ZM16.2201 8.73667L16.7923 9.22147L16.7927 9.22101L16.2201 8.73667ZM17.0292 7.78L17.6019 8.26435L17.6029 8.26308L17.0292 7.78ZM17.1126 6.825L16.4637 7.20115L16.4639 7.20142L17.1126 6.825ZM16.4459 5.675L15.7963 6.0499L15.797 6.05115L16.4459 5.675ZM15.5751 5.27167L15.7082 6.00975L15.7092 6.00957L15.5751 5.27167ZM14.3417 5.49417L14.4747 6.23229L14.4749 6.23225L14.3417 5.49417ZM13.7776 5.39583L13.4026 6.04536L13.4027 6.04546L13.7776 5.39583ZM12.5217 4.67083L12.1461 5.32L12.1467 5.32036L12.5217 4.67083ZM12.1534 4.23083L11.4475 4.48426L11.4483 4.48637L12.1534 4.23083ZM10.9458 3.25C10.9809 3.25001 11.0123 3.27208 11.0242 3.30517L12.4359 2.79817C12.2101 2.16946 11.614 1.7501 10.946 1.75L10.9458 3.25ZM9.61256 3.25H10.9459V1.75H9.61256V3.25ZM9.54176 3.30514C9.55355 3.2723 9.58455 3.25029 9.61943 3.24997L9.60569 1.75003C8.94289 1.75611 8.35403 2.17438 8.13002 2.7982L9.54176 3.30514ZM9.11845 4.48426L9.54178 3.30509L8.13 2.79825L7.70667 3.97741L9.11845 4.48426ZM8.4223 5.31905C8.74444 5.13158 8.99051 4.83695 9.11761 4.48658L7.70751 3.97509C7.70025 3.99509 7.6862 4.01191 7.66781 4.02262L8.4223 5.31905ZM7.16318 6.04547L8.41985 5.32047L7.67027 4.0212L6.4136 4.7462L7.16318 6.04547ZM6.09129 6.23229C6.45945 6.2986 6.83919 6.23241 7.16321 6.04546L6.41358 4.74621C6.39652 4.75605 6.37653 4.75953 6.35716 4.75604L6.09129 6.23229ZM4.85774 6.00975L6.09107 6.23225L6.35738 4.75608L5.12405 4.53358L4.85774 6.00975ZM4.7704 6.05002C4.78798 6.01957 4.82279 6.00343 4.8574 6.00969L5.12439 4.53364C4.46688 4.41471 3.80549 4.72134 3.47139 5.29998L4.7704 6.05002ZM4.10308 7.20115L4.76975 6.05115L3.47204 5.29885L2.80537 6.44885L4.10308 7.20115ZM4.11126 7.29692C4.08861 7.27003 4.08528 7.23182 4.10292 7.20142L2.80553 6.44858C2.47031 7.02627 2.53366 7.75219 2.96386 8.26308L4.11126 7.29692ZM4.91352 8.25528L4.11265 7.29858L2.96246 8.26142L3.76332 9.21812L4.91352 8.25528ZM5.28589 9.27479C5.28576 8.90019 5.15282 8.53777 4.9107 8.25193L3.76615 9.22147C3.77889 9.23651 3.78589 9.25559 3.78589 9.2753L5.28589 9.27479ZM5.28589 10.725V9.27505H3.78589V10.725H5.28589ZM4.91064 11.7481C5.15278 11.4623 5.28574 11.0999 5.28589 10.7253L3.78589 10.7247C3.78588 10.7444 3.77889 10.7635 3.76614 10.7785L4.91064 11.7481ZM4.10186 12.7043L4.91103 11.7477L3.76576 10.779L2.95659 11.7357L4.10186 12.7043ZM4.09459 12.7986C4.07695 12.7682 4.08028 12.73 4.10292 12.7031L2.95553 11.7369C2.52532 12.2478 2.46198 12.9737 2.79719 13.5514L4.09459 12.7986ZM4.76141 13.9489L4.09475 12.7989L2.79704 13.5511L3.4637 14.7011L4.76141 13.9489ZM4.84922 13.9904C4.81459 13.9967 4.77973 13.9806 4.76214 13.9501L3.46298 14.6999C3.7973 15.2792 4.45954 15.5859 5.11757 15.4662L4.84922 13.9904ZM6.08357 13.7677L4.85024 13.9902L5.11655 15.4664L6.34988 15.2439L6.08357 13.7677ZM7.15571 13.9545C6.83169 13.7676 6.45195 13.7014 6.08379 13.7677L6.34966 15.244C6.36904 15.2405 6.38902 15.244 6.40608 15.2538L7.15571 13.9545ZM8.41235 14.6795L7.15568 13.9545L6.4061 15.2538L7.66277 15.9788L8.41235 14.6795ZM9.11011 15.5134C8.98301 15.163 8.73694 14.8684 8.41481 14.681L7.66031 15.9774C7.6787 15.9881 7.69275 16.0049 7.70001 16.0249L9.11011 15.5134ZM9.53428 16.6949L9.11095 15.5157L7.69917 16.0226L8.1225 17.2018L9.53428 16.6949ZM9.61267 16.75C9.57751 16.75 9.54613 16.7279 9.53425 16.6948L8.12253 17.2018C8.34833 17.8305 8.94442 18.2499 9.61245 18.25L9.61267 16.75ZM10.9459 16.75H9.61256V18.25H10.9459V16.75ZM11.025 16.6948C11.0131 16.7279 10.9817 16.75 10.9465 16.75L10.9453 18.25C11.6139 18.2505 12.2108 17.831 12.4367 17.2018L11.025 16.6948ZM11.4483 15.5157L11.025 16.6949L12.4368 17.2017L12.8601 16.0226L11.4483 15.5157ZM12.1469 14.68C11.8235 14.8671 11.5764 15.1623 11.4491 15.5136L12.8593 16.0247C12.8664 16.0051 12.8801 15.9887 12.8981 15.9783L12.1469 14.68ZM13.4034 13.9546L12.1476 14.6796L12.8975 15.9787L14.1533 15.2537L13.4034 13.9546ZM14.4755 13.7677C14.1073 13.7014 13.7276 13.7676 13.4035 13.9545L14.1532 15.2538C14.1702 15.2439 14.1902 15.2404 14.2096 15.2439L14.4755 13.7677ZM15.709 13.9902L14.4757 13.7677L14.2094 15.2439L15.4427 15.4664L15.709 13.9902ZM15.7964 13.9499C15.7788 13.9804 15.744 13.9965 15.7094 13.9903L15.4424 15.4663C16.0999 15.5853 16.7613 15.2786 17.0954 14.7L15.7964 13.9499ZM16.4637 12.7988L15.797 13.9488L17.0947 14.7011L17.7614 13.5511L16.4637 12.7988ZM16.4555 12.703C16.4781 12.7299 16.4815 12.7681 16.4638 12.7985L17.7612 13.5514C18.0964 12.9737 18.0331 12.2478 17.6029 11.7369L16.4555 12.703ZM15.6474 11.7476L16.4566 12.7043L17.6018 11.7356L16.7927 10.779L15.6474 11.7476ZM15.2726 10.7252C15.2727 11.0998 15.4056 11.4622 15.6478 11.7481L16.7923 10.7785C16.7796 10.7635 16.7726 10.7444 16.7726 10.7247L15.2726 10.7252ZM15.2726 9.275V10.725H16.7726V9.275H15.2726ZM15.6478 8.25187C15.4057 8.53769 15.2727 8.9001 15.2726 9.2747L16.7726 9.2753C16.7726 9.25558 16.7796 9.23651 16.7923 9.22146L15.6478 8.25187ZM16.4566 7.29565L15.6474 8.25232L16.7927 9.22101L17.6019 8.26434L16.4566 7.29565ZM16.4639 7.20142C16.4815 7.23182 16.4782 7.27003 16.4555 7.29692L17.6029 8.26308C18.0331 7.75218 18.0965 7.02627 17.7613 6.44858L16.4639 7.20142ZM15.797 6.05115L16.4637 7.20115L17.7614 6.44885L17.0947 5.29885L15.797 6.05115ZM15.7092 6.00957C15.7439 6.00327 15.7787 6.01941 15.7963 6.0499L17.0955 5.3001C16.7611 4.72084 16.0989 4.41412 15.4409 4.53377L15.7092 6.00957ZM14.4749 6.23225L15.7082 6.00975L15.4419 4.53358L14.2086 4.75608L14.4749 6.23225ZM13.4027 6.04546C13.7268 6.23241 14.1065 6.2986 14.4747 6.23229L14.2088 4.75604C14.1894 4.75953 14.1694 4.75605 14.1524 4.74621L13.4027 6.04546ZM12.1467 5.32036L13.4026 6.04536L14.1525 4.7463L12.8967 4.0213L12.1467 5.32036ZM11.4483 4.48637C11.5756 4.83768 11.8227 5.13287 12.1461 5.32L12.8973 4.02166C12.8793 4.01126 12.8656 3.99484 12.8585 3.9753L11.4483 4.48637ZM11.0242 3.30509L11.4475 4.48425L12.8593 3.97741L12.4359 2.79825L11.0242 3.30509ZM10.2083 6.125C7.95317 6.125 6.12499 7.95317 6.12499 10.2083H7.62499C7.62499 8.7816 8.78159 7.625 10.2083 7.625V6.125ZM14.2917 10.2083C14.2917 7.95317 12.4635 6.125 10.2083 6.125V7.625C11.6351 7.625 12.7917 8.7816 12.7917 10.2083H14.2917ZM10.2083 14.2917C12.4635 14.2917 14.2917 12.4635 14.2917 10.2083H12.7917C12.7917 11.6351 11.6351 12.7917 10.2083 12.7917V14.2917ZM6.12499 10.2083C6.12499 12.4635 7.95317 14.2917 10.2083 14.2917V12.7917C8.78159 12.7917 7.62499 11.6351 7.62499 10.2083H6.12499Z" fill="#FAC637"/>
</svg>
