<svg width="615" height="121" viewBox="0 0 615 121" fill="none" xmlns="http://www.w3.org/2000/svg">
<path d="M0 11C12.6 11 25.3 10.9 37.9 11C41.2203 11.0019 44.5338 11.3031 47.8 11.9C64.9 15 74.5 26.7 74 43.5C73.5 58.6 62.4 70.5 45.8 71.8C30.6 73 15.3 72.7 0 73V11ZM20.3 55.8C27.8 55.8 35.1 56.4 42.3 55.6C49.5 54.8 53.7 49.3 53.9 42.2C54 34.7 50.3 29.2 42.7 28C35.4 26.9 27.9 27.1 20.3 26.8V55.8Z" fill="white"/>
<path d="M614.83 65.67C614.83 65.18 614.83 64.67 614.83 64.22C614.83 63.29 614.83 62.35 614.83 61.41C614.806 60.7007 614.746 59.9931 614.65 59.29C614.65 59.01 614.58 58.74 614.54 58.47C614.53 58.4172 614.53 58.3628 614.54 58.31C612.54 40.51 597.34 27.41 575.14 30.01C570.626 30.4824 566.261 31.8962 562.327 34.1602C558.394 36.4241 554.978 39.4879 552.302 43.1536C549.626 46.8193 547.748 51.0056 546.79 55.442C545.832 59.8785 545.815 64.4666 546.74 68.91C568.14 68.91 589.74 68.91 611.34 68.81C612.49 68.71 613.74 67.7 614.9 67.09L614.83 65.67ZM565.2 57.1C566.6 48.7 572.6 44.1 581.1 44.1C587.3 44.1 595.9 49.3 595.8 57.1H565.2Z" fill="white"/>
<path d="M289 121C285 119.6 280.9 118.3 276.9 116.9C275.745 116.265 274.671 115.492 273.7 114.6C276 110.1 278.2 105.8 280.5 101.2C281.6 101.8 282.4 102.3 283.3 102.7C292 107.4 298.3 105.4 302.2 96.3C310.9 76.2 319.6 56.1 327.9 35.8C329.7 31.5 331.8 29.9 336.3 30.4C340.1 30.8 343.9 30.5 348.5 30.5C347.8 32.6 347.3 34.1 346.7 35.5C338.1 55.8 329.1 76 320.9 96.5C316.1 108.5 309.7 118.2 296.1 121H289Z" fill="#FAC637"/>
<path d="M0 77H19.7V96H0V77Z" fill="#FAC637"/>
<path d="M300 91.5C291.5 70.9 283.6 51.7 275.3 31.6C267.7 42.2 260.5 52.2 253.2 62.5C261.5 73.5 269.6 84.3 278.4 95.9C270.9 95.9 264.5 96 258.1 95.8C257 95.8 255.6 94.4 254.8 93.3C250.7 87.8 246.8 82.3 242.4 76.2C238.1 82 234.2 87.6 229.9 92.8C228.472 94.4465 226.469 95.4842 224.3 95.7C218.9 96.1 213.4 95.8 206.9 95.8C209.3 92.6 211.1 90 213.1 87.4C218.5 80.2 223.9 73 229.6 66C231.6 63.5 231.4 62 229.5 59.6C222.3 50.3 215.3 40.7 207.5 30.4C215 30.4 221.5 30.3 228.1 30.5C229.2 30.5 230.4 32.2 231.3 33.3C235.1 38.3 238.8 43.5 242.9 49.1C247 43.6 250.7 38.3 254.9 33.4C256.2 31.9 258.6 30.4 260.5 30.4C270.3 30.1 280.2 30.4 290 30.2C292.7 30.2 294.1 31 295.2 33.6C299.6 44.6 304.2 55.4 308.7 66.4C309.367 67.8393 309.509 69.4671 309.1 71C306.4 77.7 303.4 84 300 91.5Z" fill="white"/>
<path d="M164.4 97C154.2 96.8 142.3 91.6 136.1 78C130.2 65.2 131.5 52.6 140.7 41.5C150.6 29.5 170.9 26 186.2 33.3C200.3 40.1 207.1 54.4 204.1 70.8C201.1 86.5 186.9 97 164.4 97ZM185.2 63.3C185.2 52.6 178.4 45.2 168.8 45.3C159.2 45.4 152.2 53.1 152.2 63.3C152.2 73.9 159 81.1 168.8 81.1C178.6 81.1 185.2 74.2 185.2 63.3Z" fill="white"/>
<path d="M484.4 37.3C493.2 30.1 502.6 28.4 512.7 30.3C524.1 32.5 531.8 41 532.5 54C533.3 67.7 532.7 81.6 532.7 95.7H513.8V67.7C513.866 64.5281 513.733 61.3551 513.4 58.2C512.4 50.7 508.5 46.8 501.7 46.2C494.6 45.6 488.1 49.6 486.2 56.2C485.429 59.1026 485.059 62.097 485.1 65.1C485 75.2 485 85.4 485 95.8H466.1V31H483.9C484.1 32.8 484.2 34.6 484.4 37.3Z" fill="white"/>
<path d="M377.5 11.1H357.9C357.9 39.6 357.9 67.7 358 95.7H419.8V79.7H377.5V11.1Z" fill="white"/>
<path d="M126.9 30.1V47.1H123.7C111.9 47.1 105.9 53.1 105.9 65C105.8 74.8 105.8 84.7 105.8 94.5C105.704 94.944 105.57 95.379 105.4 95.8H86.9V31H104.5C104.7 33.3 104.9 35.3 105.1 37.5C115.7 30.4 118.3 29.5 126.9 30.1Z" fill="white"/>
<path d="M448.2 96H432.5C431.5 96 430.6 95.8 429.4 95.7V30.8H448.1C448.2 52.5 448.2 74.1 448.2 96Z" fill="white"/>
<path d="M438.94 21.84C445.562 21.84 450.93 16.951 450.93 10.92C450.93 4.88905 445.562 0 438.94 0C432.318 0 426.95 4.88905 426.95 10.92C426.95 16.951 432.318 21.84 438.94 21.84Z" fill="white"/>
<path d="M610.2 86.5C598.8 98 585.1 98.8 570.8 95.5C558.1 92.5 548.9 83.1 547.3 72.6C553.1 72.6 558.8 72.5 564.6 72.7C565.155 72.7484 565.692 72.9165 566.176 73.1927C566.659 73.4689 567.077 73.8467 567.4 74.3C573 83.4 590.1 83.9 597.9 77C598.4 76.6 599 76.2 600 75.5C601.7 77.2 603.4 79 605 80.8C606.6 82.6 608.3 84.4 610.2 86.5Z" fill="#FAC637"/>
</svg>
