<svg width="132" height="24" viewBox="0 0 132 24" fill="none" xmlns="http://www.w3.org/2000/svg">
<g clip-path="url(#clip0_1730_13056)">
<path d="M0.205002 2.18179C2.90099 2.18179 5.61838 2.16195 8.31437 2.18179C9.02481 2.18217 9.73379 2.24191 10.4326 2.3603C14.0915 2.97518 16.1456 5.29584 16.0386 8.62807C15.9316 11.6231 13.5566 13.9834 10.0047 14.2413C6.75241 14.4793 3.4787 14.4198 0.205002 14.4793V2.18179ZM4.54854 11.0677C6.1533 11.0677 7.71526 11.1867 9.25583 11.0281C10.7964 10.8694 11.6951 9.77848 11.7378 8.37022C11.7592 6.88262 10.9676 5.79171 9.34141 5.55369C7.77945 5.33551 6.17469 5.37518 4.54854 5.31567V11.0677Z" fill="white"/>
<path d="M131.759 13.0255C131.759 12.9283 131.759 12.8271 131.759 12.7379C131.759 12.5534 131.759 12.367 131.759 12.1805C131.753 12.0398 131.741 11.8995 131.72 11.76C131.72 11.7045 131.705 11.6509 131.697 11.5974C131.694 11.5869 131.694 11.5761 131.697 11.5657C131.269 8.03508 128.016 5.43673 123.266 5.95243C122.3 6.04613 121.366 6.32656 120.525 6.77561C119.683 7.22465 118.952 7.83235 118.38 8.55943C117.807 9.28651 117.405 10.1168 117.2 10.9968C116.995 11.8768 116.992 12.7868 117.19 13.6681C121.768 13.6681 126.39 13.6681 131.012 13.6483C131.258 13.6285 131.525 13.4281 131.774 13.3071L131.759 13.0255ZM121.139 11.3257C121.439 9.65954 122.723 8.74714 124.541 8.74714C125.868 8.74714 127.708 9.77855 127.687 11.3257H121.139Z" fill="white"/>
<path d="M62.0416 24C61.1857 23.7223 60.3085 23.4644 59.4526 23.1867C59.2055 23.0608 58.9757 22.9075 58.7679 22.7305C59.26 21.838 59.7308 20.9851 60.2229 20.0727C60.4582 20.1917 60.6294 20.2909 60.822 20.3702C62.6835 21.3024 64.0315 20.9058 64.866 19.1008C66.7275 15.114 68.589 11.1272 70.3649 7.1008C70.7501 6.2479 71.1994 5.93055 72.1623 6.02972C72.9753 6.10906 73.7884 6.04956 74.7727 6.04956C74.6229 6.46608 74.5159 6.76361 74.3875 7.04129C72.5474 11.0677 70.6217 15.0743 68.8672 19.1405C67.8401 21.5206 66.4707 23.4446 63.5608 24H62.0416Z" fill="#FAC637"/>
<path d="M0.205002 15.2727H4.42016V19.0413H0.205002V15.2727Z" fill="#FAC637"/>
<path d="M64.3952 18.1488C62.5765 14.0628 60.8862 10.2546 59.1102 6.2678C57.4841 8.37028 55.9435 10.3537 54.3816 12.3967C56.1575 14.5785 57.8906 16.7207 59.7735 19.0215C58.1688 19.0215 56.7994 19.0414 55.43 19.0017C55.1946 19.0017 54.8951 18.724 54.7239 18.5058C53.8467 17.4149 53.0122 16.324 52.0707 15.1141C51.1507 16.2645 50.3162 17.3752 49.3961 18.4066C49.0906 18.7332 48.662 18.939 48.1979 18.9818C47.0425 19.0612 45.8657 19.0017 44.4749 19.0017C44.9884 18.367 45.3735 17.8513 45.8015 17.3356C46.9569 15.9075 48.1123 14.4794 49.3319 13.0909C49.7599 12.5951 49.7171 12.2975 49.3105 11.8215C47.77 9.97689 46.2722 8.07276 44.6033 6.02978C46.208 6.02978 47.5988 6.00995 49.011 6.04962C49.2464 6.04962 49.5031 6.38681 49.6957 6.60499C50.5088 7.59672 51.3004 8.62813 52.1777 9.73887C53.055 8.64796 53.8466 7.59672 54.7453 6.62482C55.0235 6.3273 55.537 6.02978 55.9435 6.02978C58.0404 5.97028 60.1587 6.02978 62.2556 5.99011C62.8333 5.99011 63.1328 6.14879 63.3682 6.66449C64.3097 8.84631 65.2939 10.9885 66.2568 13.1703C66.3995 13.4558 66.4299 13.7786 66.3424 14.0827C65.7646 15.4116 65.1227 16.6612 64.3952 18.1488Z" fill="white"/>
<path d="M35.3813 19.2397C33.1988 19.2 30.6526 18.1686 29.326 15.4711C28.0636 12.9322 28.3417 10.4331 30.3102 8.2314C32.4285 5.85123 36.772 5.15702 40.0457 6.60495C43.0627 7.95371 44.5177 10.7901 43.8758 14.043C43.2339 17.157 40.1955 19.2397 35.3813 19.2397ZM39.8318 12.5554C39.8318 10.4331 38.3768 8.96528 36.3227 8.98512C34.2686 9.00495 32.7708 10.5322 32.7708 12.5554C32.7708 14.6578 34.2258 16.0859 36.3227 16.0859C38.4196 16.0859 39.8318 14.7173 39.8318 12.5554Z" fill="white"/>
<path d="M103.851 7.39838C105.734 5.97028 107.745 5.63309 109.906 6.00995C112.345 6.44631 113.993 8.13226 114.143 10.7108C114.314 13.4281 114.185 16.1852 114.185 18.9819H110.141V13.4281C110.156 12.799 110.127 12.1696 110.056 11.5438C109.842 10.0562 109.007 9.28268 107.552 9.16367C106.033 9.04466 104.643 9.83805 104.236 11.1471C104.071 11.7229 103.992 12.3168 104.001 12.9124C103.979 14.9157 103.979 16.9389 103.979 19.0017H99.9352V6.14879H103.744C103.787 6.50582 103.808 6.86284 103.851 7.39838Z" fill="white"/>
<path d="M80.9777 2.20166H76.784C76.784 7.85455 76.784 13.4281 76.8054 18.9818H90.0285V15.8083H80.9777V2.20166Z" fill="white"/>
<path d="M27.3575 5.97028V9.34218H26.6728C24.148 9.34218 22.8642 10.5323 22.8642 12.8926C22.8428 14.8364 22.8428 16.8 22.8428 18.7438C22.8222 18.8319 22.7935 18.9182 22.7572 19.0017H18.7988V6.14879H22.5646C22.6074 6.60499 22.6502 7.00168 22.693 7.43804C24.961 6.02978 25.5174 5.85127 27.3575 5.97028Z" fill="white"/>
<path d="M96.1052 19.0414H92.7459C92.532 19.0414 92.3394 19.0017 92.0826 18.9819V6.10913H96.0838C96.1052 10.4133 96.1052 14.6976 96.1052 19.0414Z" fill="white"/>
<path d="M94.1239 4.3319C95.5408 4.3319 96.6894 3.36218 96.6894 2.16595C96.6894 0.969729 95.5408 0 94.1239 0C92.707 0 91.5584 0.969729 91.5584 2.16595C91.5584 3.36218 92.707 4.3319 94.1239 4.3319Z" fill="white"/>
<path d="M130.768 17.157C128.329 19.438 125.397 19.5967 122.338 18.9421C119.62 18.3471 117.652 16.4826 117.309 14.4C118.55 14.4 119.77 14.3801 121.011 14.4198C121.13 14.4294 121.245 14.4628 121.348 14.5175C121.452 14.5723 121.541 14.6473 121.61 14.7372C122.808 16.5421 126.467 16.6413 128.136 15.2727C128.243 15.1934 128.372 15.114 128.585 14.9752C128.949 15.3124 129.313 15.6694 129.655 16.0264C129.998 16.3835 130.361 16.7405 130.768 17.157Z" fill="#FAC637"/>
</g>
<defs>
<clipPath id="clip0_1730_13056">
<rect width="131.59" height="24" fill="white" transform="translate(0.205002)"/>
</clipPath>
</defs>
</svg>
