<svg width="202" height="37" viewBox="0 0 202 37" fill="none" xmlns="http://www.w3.org/2000/svg">
<g clip-path="url(#clip0_1730_13056)">
<path d="M0.5 3.33268C4.61805 3.33268 8.76878 3.30238 12.8868 3.33268C13.972 3.33326 15.0549 3.42451 16.1224 3.60536C21.7112 4.54458 24.8488 8.08939 24.6854 13.1794C24.522 17.7543 20.8941 21.3597 15.4688 21.7536C10.501 22.1171 5.50049 22.0262 0.5 22.1171V3.33268ZM7.13463 16.906C9.58585 16.906 11.9717 17.0878 14.3249 16.8454C16.678 16.603 18.0507 14.9366 18.1161 12.7855C18.1488 10.5132 16.9395 8.84683 14.4556 8.48326C12.0698 8.14999 9.61854 8.21058 7.13463 8.11969V16.906Z" fill="white"/>
<path d="M201.444 19.8963C201.444 19.7479 201.444 19.5934 201.444 19.457C201.444 19.1753 201.444 18.8905 201.444 18.6057C201.437 18.3908 201.417 18.1764 201.386 17.9634C201.386 17.8785 201.363 17.7967 201.35 17.7149C201.346 17.6989 201.346 17.6824 201.35 17.6664C200.696 12.2735 195.728 8.30452 188.473 9.09225C186.997 9.23538 185.571 9.66372 184.285 10.3497C183 11.0356 181.883 11.9638 181.008 13.0744C180.134 14.1851 179.52 15.4534 179.207 16.7975C178.894 18.1417 178.888 19.5317 179.191 20.878C186.185 20.878 193.244 20.878 200.304 20.8477C200.68 20.8174 201.088 20.5114 201.467 20.3266L201.444 19.8963ZM185.224 17.2998C185.681 14.7549 187.642 13.3612 190.42 13.3612C192.447 13.3612 195.258 14.9366 195.225 17.2998H185.224Z" fill="white"/>
<path d="M94.9537 36.66C93.6463 36.2359 92.3063 35.842 90.999 35.4178C90.6215 35.2254 90.2705 34.9912 89.9532 34.721C90.7049 33.3576 91.4239 32.0548 92.1756 30.6611C92.5351 30.8429 92.7966 30.9944 93.0907 31.1156C95.9341 32.5396 97.9932 31.9336 99.2678 29.1765C102.111 23.0867 104.955 16.9969 107.667 10.8465C108.256 9.54374 108.942 9.05898 110.413 9.21047C111.655 9.33166 112.897 9.24077 114.4 9.24077C114.171 9.87701 114.008 10.3315 113.812 10.7556C111.001 16.906 108.06 23.0261 105.38 29.2371C103.811 32.8728 101.719 35.8117 97.2742 36.66H94.9537Z" fill="#FAC637"/>
<path d="M0.5 23.3291H6.93854V29.0856H0.5V23.3291Z" fill="#FAC637"/>
<path d="M98.5488 27.7223C95.7707 21.481 93.1888 15.6639 90.4761 9.57407C87.9922 12.7856 85.639 15.8154 83.2532 18.936C85.9659 22.2687 88.6132 25.5409 91.4893 29.0554C89.0381 29.0554 86.9464 29.0857 84.8546 29.0251C84.4951 29.0251 84.0376 28.6009 83.7761 28.2676C82.4361 26.6013 81.1615 24.9349 79.7234 23.0868C78.3181 24.844 77.0434 26.5407 75.6381 28.1162C75.1713 28.615 74.5167 28.9294 73.8078 28.9948C72.0429 29.116 70.2454 29.0251 68.121 29.0251C68.9054 28.0556 69.4937 27.2678 70.1473 26.4801C71.9122 24.2987 73.6771 22.1172 75.54 19.9964C76.1937 19.239 76.1283 18.7845 75.5073 18.0574C73.1542 15.2397 70.8663 12.3311 68.3171 9.2105C70.7683 9.2105 72.8927 9.1802 75.0498 9.24079C75.4093 9.24079 75.8015 9.75585 76.0956 10.0891C77.3376 11.604 78.5468 13.1795 79.8868 14.8761C81.2268 13.2098 82.4361 11.604 83.8088 10.1194C84.2337 9.66496 85.0181 9.2105 85.639 9.2105C88.842 9.1196 92.0776 9.2105 95.2805 9.1499C96.1629 9.1499 96.6205 9.39228 96.98 10.18C98.4181 13.5127 99.9215 16.7849 101.392 20.1176C101.61 20.5537 101.657 21.0469 101.523 21.5113C100.64 23.5412 99.66 25.45 98.5488 27.7223Z" fill="white"/>
<path d="M54.2307 29.3885C50.8971 29.3279 47.0078 27.7525 44.9815 23.632C43.0532 19.7539 43.478 15.9364 46.4849 12.5734C49.7205 8.93771 56.3551 7.8773 61.3556 10.089C65.9639 12.1492 68.1863 16.4818 67.2059 21.4506C66.2254 26.2073 61.5844 29.3885 54.2307 29.3885ZM61.0288 19.1783C61.0288 15.9364 58.8063 13.6944 55.6688 13.7247C52.5312 13.755 50.2434 16.0879 50.2434 19.1783C50.2434 22.3898 52.4659 24.5712 55.6688 24.5712C58.8717 24.5712 61.0288 22.4807 61.0288 19.1783Z" fill="white"/>
<path d="M158.816 11.301C161.692 9.11958 164.764 8.60452 168.065 9.18017C171.791 9.84672 174.308 12.422 174.537 16.3607C174.798 20.5114 174.602 24.7228 174.602 28.9947H168.425V20.5114C168.446 19.5504 168.403 18.5891 168.294 17.6332C167.967 15.3609 166.693 14.1793 164.47 13.9975C162.15 13.8157 160.025 15.0276 159.404 17.0272C159.152 17.9066 159.031 18.8139 159.045 19.7237C159.012 22.7838 159.012 25.8741 159.012 29.025H152.835V9.39225H158.653C158.718 9.93761 158.751 10.483 158.816 11.301Z" fill="white"/>
<path d="M123.878 3.36304H117.472C117.472 11.9978 117.472 20.5114 117.505 28.9947H137.703V24.1471H123.878V3.36304Z" fill="white"/>
<path d="M41.9746 9.11952V14.2701H40.9288C37.0722 14.2701 35.1112 16.0879 35.1112 19.6934C35.0785 22.6625 35.0785 25.662 35.0785 28.6311C35.0472 28.7656 35.0034 28.8974 34.9478 29.025H28.9015V9.3922H34.6537C34.719 10.089 34.7844 10.695 34.8498 11.3615C38.3141 9.21041 39.1639 8.93773 41.9746 9.11952Z" fill="white"/>
<path d="M146.985 29.0856H141.854C141.527 29.0856 141.233 29.0251 140.84 28.9948V9.33167H146.952C146.985 15.9062 146.985 22.4505 146.985 29.0856Z" fill="white"/>
<path d="M143.958 6.61698C146.123 6.61698 147.877 5.13573 147.877 3.30849C147.877 1.48126 146.123 0 143.958 0C141.794 0 140.04 1.48126 140.04 3.30849C140.04 5.13573 141.794 6.61698 143.958 6.61698Z" fill="white"/>
<path d="M199.931 26.2073C196.205 29.6915 191.728 29.9339 187.054 28.9341C182.903 28.0252 179.897 25.1772 179.374 21.996C181.269 21.996 183.132 21.9657 185.028 22.0263C185.209 22.0409 185.385 22.0919 185.543 22.1756C185.701 22.2592 185.837 22.3737 185.943 22.511C187.773 25.2681 193.362 25.4196 195.911 23.3291C196.075 23.2079 196.271 23.0867 196.598 22.8746C197.153 23.3897 197.709 23.935 198.232 24.4804C198.755 25.0257 199.31 25.5711 199.931 26.2073Z" fill="#FAC637"/>
</g>
<defs>
<clipPath id="clip0_1730_13056">
<rect width="201" height="36.66" fill="white" transform="translate(0.5)"/>
</clipPath>
</defs>
</svg>
