<svg width="6" height="12" viewBox="0 0 6 12" fill="none" xmlns="http://www.w3.org/2000/svg">
<path d="M0.219685 9.96967C-0.0732081 10.2626 -0.073208 10.7374 0.219685 11.0303C0.512578 11.3232 0.987452 11.3232 1.28035 11.0303L0.219685 9.96967ZM5.25001 6L5.78034 6.53033C6.07324 6.23744 6.07324 5.76256 5.78034 5.46967L5.25001 6ZM1.28035 0.96967C0.987452 0.676777 0.512578 0.676777 0.219685 0.96967C-0.073208 1.26256 -0.0732081 1.73744 0.219685 2.03033L1.28035 0.96967ZM1.28035 11.0303L5.78034 6.53033L4.71968 5.46967L0.219685 9.96967L1.28035 11.0303ZM5.78034 5.46967L1.28035 0.96967L0.219685 2.03033L4.71968 6.53033L5.78034 5.46967Z" fill="#636363"/>
</svg>
