<svg width="8" height="14" viewBox="0 0 8 14" fill="none" xmlns="http://www.w3.org/2000/svg">
<path d="M0.469685 12.4697C0.176792 12.7626 0.176792 13.2374 0.469685 13.5303C0.762578 13.8232 1.23745 13.8232 1.53035 13.5303L0.469685 12.4697ZM7.00001 7L7.53035 7.53033C7.82324 7.23744 7.82324 6.76256 7.53035 6.46967L7.00001 7ZM1.53035 0.46967C1.23745 0.176777 0.762578 0.176777 0.469685 0.46967C0.176792 0.762563 0.176792 1.23744 0.469685 1.53033L1.53035 0.46967ZM1.53035 13.5303L7.53035 7.53033L6.46968 6.46967L0.469685 12.4697L1.53035 13.5303ZM7.53035 6.46967L1.53035 0.46967L0.469685 1.53033L6.46968 7.53033L7.53035 6.46967Z" fill="white"/>
</svg>
